<svg width="24" height="27" viewBox="0 0 24 27" fill="none" xmlns="http://www.w3.org/2000/svg">
<path d="M7.07897 2.17791C7.42321 1.3639 8.57679 1.36391 8.92103 2.17791L9.98266 4.68831C10.0957 4.9557 10.3195 5.16076 10.5957 5.25019L13.0617 6.04863C13.9843 6.34735 13.9843 7.65265 13.0617 7.95138L10.5957 8.74981C10.3194 8.83924 10.0957 9.0443 9.98266 9.31169L8.92103 11.8221C8.57679 12.6361 7.42321 12.6361 7.07897 11.8221L6.01734 9.31169C5.90426 9.0443 5.68055 8.83924 5.40434 8.74981L2.93834 7.95137C2.01572 7.65265 2.01573 6.34735 2.93834 6.04862L5.40434 5.25019C5.68055 5.16076 5.90426 4.9557 6.01734 4.68831L7.07897 2.17791Z" fill="url(#paint0_linear_1133_3889)"/>
<path d="M17.5621 13.5345C17.8843 12.6639 19.1157 12.6639 19.4379 13.5345L19.8259 14.5833C19.9272 14.857 20.143 15.0728 20.4167 15.1741L21.4655 15.5621C22.3361 15.8843 22.3361 17.1157 21.4655 17.4379L20.4167 17.8259C20.143 17.9272 19.9272 18.143 19.8259 18.4167L19.4379 19.4655C19.1157 20.3361 17.8843 20.3361 17.5621 19.4655L17.1741 18.4167C17.0728 18.143 16.857 17.9272 16.5833 17.8259L15.5345 17.4379C14.6639 17.1157 14.6639 15.8843 15.5345 15.5621L16.5833 15.1741C16.857 15.0728 17.0728 14.857 17.1741 14.5833L17.5621 13.5345Z" fill="url(#paint1_linear_1133_3889)"/>
<path d="M7.5768 21.2177C7.91853 20.3968 9.08147 20.3968 9.4232 21.2177L9.54152 21.5019C9.65193 21.7672 9.8723 21.9712 10.1452 22.061C11.0514 22.3591 11.0514 23.6409 10.1452 23.939C9.8723 24.0288 9.65193 24.2328 9.54152 24.4981L9.4232 24.7823C9.08147 25.6032 7.91853 25.6032 7.5768 24.7823L7.45848 24.4981C7.34807 24.2328 7.1277 24.0288 6.85477 23.939C5.9486 23.6409 5.9486 22.3591 6.85477 22.061C7.1277 21.9712 7.34807 21.7672 7.45848 21.5019L7.5768 21.2177Z" fill="url(#paint2_linear_1133_3889)"/>
<defs>
<linearGradient id="paint0_linear_1133_3889" x1="8" y1="0" x2="8" y2="14" gradientUnits="userSpaceOnUse">
<stop stop-color="#C5D3E6"/>
<stop offset="1" stop-color="#F1F6FC"/>
</linearGradient>
<linearGradient id="paint1_linear_1133_3889" x1="18.5" y1="11" x2="18.5" y2="22" gradientUnits="userSpaceOnUse">
<stop stop-color="#C5D3E6"/>
<stop offset="1" stop-color="#F1F6FC"/>
</linearGradient>
<linearGradient id="paint2_linear_1133_3889" x1="8.5" y1="19" x2="8.5" y2="27" gradientUnits="userSpaceOnUse">
<stop stop-color="#C5D3E6"/>
<stop offset="1" stop-color="#F1F6FC"/>
</linearGradient>
</defs>
</svg>
