<svg width="130" height="59" viewBox="0 0 130 59" fill="none" xmlns="http://www.w3.org/2000/svg">
<path d="M0 24.9145C0 12.2592 9.62033 2 21.4876 2H101.529C113.396 2 123.017 12.2592 123.017 24.9145V25.4874C123.017 38.1427 113.396 48.4019 101.529 48.4019H21.4876C9.62033 48.4019 0 38.1427 0 25.4874V24.9145Z" fill="url(#paint0_linear_1133_3887)"/>
<path d="M95.3471 41.0339C96.6943 45.5376 106.848 53.1911 130 59C119.185 40.6777 124.625 27.2843 122.476 20.1234C117.91 21.5557 115.091 17.4013 108.976 25.1464C102.861 32.8916 87.0249 39.2361 95.3471 41.0339Z" fill="url(#paint1_linear_1133_3887)"/>
<path d="M54.608 31.48C53.7333 31.48 52.9707 31.2027 52.32 30.648C51.68 30.0933 51.36 29.3413 51.36 28.392C51.36 27.752 51.504 27.2027 51.792 26.744C52.0907 26.2853 52.4853 25.928 52.976 25.672C53.4773 25.416 54.0213 25.288 54.608 25.288C55.4933 25.288 56.256 25.5653 56.896 26.12C57.536 26.6747 57.856 27.432 57.856 28.392C57.856 29.032 57.7067 29.5813 57.408 30.04C57.1093 30.4987 56.7147 30.8507 56.224 31.096C55.7333 31.352 55.1947 31.48 54.608 31.48ZM63.7955 31.48C62.9208 31.48 62.1582 31.2027 61.5075 30.648C60.8675 30.0933 60.5475 29.3413 60.5475 28.392C60.5475 27.752 60.6915 27.2027 60.9795 26.744C61.2782 26.2853 61.6728 25.928 62.1635 25.672C62.6648 25.416 63.2088 25.288 63.7955 25.288C64.6808 25.288 65.4435 25.5653 66.0835 26.12C66.7235 26.6747 67.0435 27.432 67.0435 28.392C67.0435 29.032 66.8942 29.5813 66.5955 30.04C66.2968 30.4987 65.9022 30.8507 65.4115 31.096C64.9208 31.352 64.3822 31.48 63.7955 31.48ZM72.983 31.48C72.1083 31.48 71.3457 31.2027 70.695 30.648C70.055 30.0933 69.735 29.3413 69.735 28.392C69.735 27.752 69.879 27.2027 70.167 26.744C70.4657 26.2853 70.8603 25.928 71.351 25.672C71.8523 25.416 72.3963 25.288 72.983 25.288C73.8683 25.288 74.631 25.5653 75.271 26.12C75.911 26.6747 76.231 27.432 76.231 28.392C76.231 29.032 76.0817 29.5813 75.783 30.04C75.4843 30.4987 75.0897 30.8507 74.599 31.096C74.1083 31.352 73.5697 31.48 72.983 31.48Z" fill="#FFF8F8"/>
<defs>
<linearGradient id="paint0_linear_1133_3887" x1="65" y1="2" x2="65" y2="59" gradientUnits="userSpaceOnUse">
<stop stop-color="#757EC2"/>
<stop offset="1" stop-color="#A4A9D4"/>
</linearGradient>
<linearGradient id="paint1_linear_1133_3887" x1="65" y1="2" x2="65" y2="59" gradientUnits="userSpaceOnUse">
<stop stop-color="#757EC2"/>
<stop offset="1" stop-color="#A4A9D4"/>
</linearGradient>
</defs>
</svg>
