<svg width="109" height="101" viewBox="0 0 109 101" fill="none" xmlns="http://www.w3.org/2000/svg">
<path d="M78 68C78 63.6664 77.3922 59.3752 76.2112 55.3714C75.0302 51.3677 73.2992 47.7298 71.117 44.6655C68.9348 41.6011 66.3442 39.1704 63.4931 37.512C60.6419 35.8536 57.5861 35 54.5 35C51.4139 35 48.3581 35.8536 45.5069 37.512C42.6558 39.1704 40.0652 41.6011 37.883 44.6655C35.7008 47.7298 33.9698 51.3677 32.7888 55.3714C31.6078 59.3752 31 63.6664 31 68L54.5 68H78Z" fill="url(#paint0_linear_1133_3888)"/>
<circle cx="54" cy="17" r="14" fill="url(#paint1_linear_1133_3888)"/>
<ellipse cx="23.5" cy="14" rx="13.5" ry="14" fill="url(#paint2_linear_1133_3888)"/>
<path d="M23.8604 31.3125C26.9936 31.3125 30.0804 32.3915 32.9912 33.8643C34.2174 34.4847 36.441 35.7324 37.7646 36.9248C35.4026 38.5488 33.2432 40.7107 31.3789 43.3301C29.1633 46.4432 27.4061 50.1396 26.207 54.207C25.208 57.5959 24.6141 61.1875 24.4434 64.8379H0C-2.73922e-07 60.4354 0.617379 56.0761 1.81641 52.0088C3.0155 47.9413 4.77264 44.2449 6.98828 41.1318C9.20392 38.0187 11.8346 35.5491 14.7295 33.8643C17.6243 32.1796 20.7271 31.3125 23.8604 31.3125Z" fill="url(#paint3_linear_1133_3888)"/>
<circle cx="14" cy="14" r="14" transform="matrix(-1 0 0 1 99 0)" fill="url(#paint4_linear_1133_3888)"/>
<path d="M84.9551 31.3125C81.8218 31.3125 78.7351 32.3915 75.8242 33.8643C74.598 34.4847 72.3744 35.7324 71.0508 36.9248C73.4128 38.5488 75.5722 40.7107 77.4365 43.3301C79.6522 46.4432 81.4093 50.1396 82.6084 54.207C83.6074 57.5959 84.2013 61.1875 84.3721 64.8379H108.815C108.815 60.4354 108.198 56.0761 106.999 52.0088C105.8 47.9413 104.043 44.2449 101.827 41.1318C99.6115 38.0187 96.9808 35.5491 94.0859 33.8643C91.1911 32.1796 88.0884 31.3125 84.9551 31.3125Z" fill="url(#paint5_linear_1133_3888)"/>
<defs>
<linearGradient id="paint0_linear_1133_3888" x1="54.5" y1="35" x2="54.5" y2="101" gradientUnits="userSpaceOnUse">
<stop stop-color="#C7DBE3"/>
<stop offset="1" stop-color="#B3D0C6"/>
</linearGradient>
<linearGradient id="paint1_linear_1133_3888" x1="54" y1="3" x2="54" y2="31" gradientUnits="userSpaceOnUse">
<stop stop-color="#C7DBE3"/>
<stop offset="1" stop-color="#B3D0C6"/>
</linearGradient>
<linearGradient id="paint2_linear_1133_3888" x1="23.5" y1="0" x2="23.5" y2="28" gradientUnits="userSpaceOnUse">
<stop stop-color="#C7DBE3"/>
<stop offset="1" stop-color="#B3D0C6"/>
</linearGradient>
<linearGradient id="paint3_linear_1133_3888" x1="18.8823" y1="31.3125" x2="18.8823" y2="64.8379" gradientUnits="userSpaceOnUse">
<stop stop-color="#C7DBE3"/>
<stop offset="1" stop-color="#B3D0C6"/>
</linearGradient>
<linearGradient id="paint4_linear_1133_3888" x1="14" y1="0" x2="14" y2="28" gradientUnits="userSpaceOnUse">
<stop stop-color="#C7DBE3"/>
<stop offset="1" stop-color="#B3D0C6"/>
</linearGradient>
<linearGradient id="paint5_linear_1133_3888" x1="89.9331" y1="31.3125" x2="89.9331" y2="64.8379" gradientUnits="userSpaceOnUse">
<stop stop-color="#C7DBE3"/>
<stop offset="1" stop-color="#B3D0C6"/>
</linearGradient>
</defs>
</svg>
