<svg width="46" height="45" viewBox="0 0 46 45" fill="none" xmlns="http://www.w3.org/2000/svg">
<g opacity="0.8" filter="url(#filter0_d_1133_3886)">
<ellipse cx="23" cy="20.5" rx="19" ry="18.5" fill="url(#paint0_linear_1133_3886)"/>
<path d="M23 2.5C33.2299 2.5 41.5 10.5714 41.5 20.5C41.5 30.4286 33.2299 38.5 23 38.5C12.7701 38.5 4.5 30.4286 4.5 20.5C4.5 10.5714 12.7701 2.5 23 2.5Z" stroke="url(#paint1_linear_1133_3886)"/>
</g>
<path d="M35.5 22.5C36.3284 22.5 37 21.8284 37 21C37 20.1716 36.3284 19.5 35.5 19.5V21V22.5ZM9.93934 19.9393C9.35355 20.5251 9.35355 21.4749 9.93934 22.0607L19.4853 31.6066C20.0711 32.1924 21.0208 32.1924 21.6066 31.6066C22.1924 31.0208 22.1924 30.0711 21.6066 29.4853L13.1213 21L21.6066 12.5147C22.1924 11.9289 22.1924 10.9792 21.6066 10.3934C21.0208 9.80761 20.0711 9.80761 19.4853 10.3934L9.93934 19.9393ZM35.5 21V19.5H23.25V21V22.5H35.5V21ZM23.25 21V19.5L11 19.5V21V22.5L23.25 22.5V21Z" fill="#FFF5FA"/>
<defs>
<filter id="filter0_d_1133_3886" x="0" y="0" width="46" height="45" filterUnits="userSpaceOnUse" color-interpolation-filters="sRGB">
<feFlood flood-opacity="0" result="BackgroundImageFix"/>
<feColorMatrix in="SourceAlpha" type="matrix" values="0 0 0 0 0 0 0 0 0 0 0 0 0 0 0 0 0 0 127 0" result="hardAlpha"/>
<feOffset dy="2"/>
<feGaussianBlur stdDeviation="2"/>
<feComposite in2="hardAlpha" operator="out"/>
<feColorMatrix type="matrix" values="0 0 0 0 0 0 0 0 0 0 0 0 0 0 0 0 0 0 0.25 0"/>
<feBlend mode="normal" in2="BackgroundImageFix" result="effect1_dropShadow_1133_3886"/>
<feBlend mode="normal" in="SourceGraphic" in2="effect1_dropShadow_1133_3886" result="shape"/>
</filter>
<linearGradient id="paint0_linear_1133_3886" x1="23" y1="2" x2="23" y2="39" gradientUnits="userSpaceOnUse">
<stop stop-color="#8666BC"/>
<stop offset="1" stop-color="#AC66AA"/>
</linearGradient>
<linearGradient id="paint1_linear_1133_3886" x1="23" y1="2" x2="23" y2="39" gradientUnits="userSpaceOnUse">
<stop stop-color="#A07CE2"/>
<stop offset="1" stop-color="#6C2968"/>
</linearGradient>
</defs>
</svg>
